<svg
    version="1.0"
    xmlns="http://www.w3.org/2000/svg"
    xmlns:xlink="http://www.w3.org/1999/xlink"
    width="512"
    height="512"
    viewBox="0 0 512 512"
  >
    <svg id="global-svg-defs" version="1.0" xmlns="http://www.w3.org/2000/svg" width="0" height="0" viewBox="0 0 340.000000 250.000000" preserveAspectRatio="xMidYMid meet" color-interpolation-filters="sRGB" class="el-tooltip" style="margin: auto;" xmlns:xlink="http://www.w3.org/1999/xlink">
    <defs>
      <pattern id="watermark" patternUnits="userSpaceOnUse" width="100%" height="100%">
        <image xlink:href="https://www.logoai.com/img/watermark/LOGOAI-watermark.png" x="0" y="0" width="100%" height="100%">
        </image>
      </pattern>
                    <linearGradient id="92" x1="0%" y1="0%" x2="100%" y2="0%">
          <stop offset="0%" stop-color="#fa71cd"></stop>
          <stop offset="100%" stop-color="#9b59b6"></stop>
        </linearGradient>
              <linearGradient id="93" x1="0%" y1="0%" x2="100%" y2="0%">
          <stop offset="0%" stop-color="#f9d423"></stop>
          <stop offset="100%" stop-color="#f83600"></stop>
        </linearGradient>
              <linearGradient id="94" x1="0%" y1="0%" x2="100%" y2="0%">
          <stop offset="0%" stop-color="#0064d2"></stop>
          <stop offset="100%" stop-color="#1cb0f6"></stop>
        </linearGradient>
              <linearGradient id="95" x1="0%" y1="0%" x2="100%" y2="0%">
          <stop offset="0%" stop-color="#f00978"></stop>
          <stop offset="100%" stop-color="#3f51b1"></stop>
        </linearGradient>
              <linearGradient id="96" x1="0%" y1="0%" x2="100%" y2="0%">
          <stop offset="0%" stop-color="#7873f5"></stop>
          <stop offset="100%" stop-color="#ec77ab"></stop>
        </linearGradient>
              <linearGradient id="97" x1="0%" y1="0%" x2="100%" y2="0%">
          <stop offset="0%" stop-color="#f9d423"></stop>
          <stop offset="100%" stop-color="#e14fad"></stop>
        </linearGradient>
              <linearGradient id="98" x1="0%" y1="0%" x2="100%" y2="0%">
          <stop offset="0%" stop-color="#009efd"></stop>
          <stop offset="100%" stop-color="#2af598"></stop>
        </linearGradient>
              <linearGradient id="99" x1="0%" y1="0%" x2="100%" y2="0%">
          <stop offset="0%" stop-color="#ffcc00"></stop>
          <stop offset="100%" stop-color="#00b140"></stop>
        </linearGradient>
              <linearGradient id="100" x1="0%" y1="0%" x2="100%" y2="0%">
          <stop offset="0%" stop-color="#d51007"></stop>
          <stop offset="100%" stop-color="#ff8177"></stop>
        </linearGradient>
              <linearGradient id="102" x1="0%" y1="0%" x2="100%" y2="0%">
          <stop offset="0%" stop-color="#a2b6df"></stop>
          <stop offset="100%" stop-color="#0c3483"></stop>
        </linearGradient>
              <linearGradient id="103" x1="0%" y1="0%" x2="100%" y2="0%">
          <stop offset="0%" stop-color="#7ac5d8"></stop>
          <stop offset="100%" stop-color="#eea2a2"></stop>
        </linearGradient>
              <linearGradient id="104" x1="0%" y1="0%" x2="100%" y2="0%">
          <stop offset="0%" stop-color="#00ecbc"></stop>
          <stop offset="100%" stop-color="#007adf"></stop>
        </linearGradient>
          </defs>
  </svg>
    <rect
      x="0"
      y="0"
      width="100%"
      height="100%"
      fill="transparent"
      fill-opacity="1"
    ></rect>
    <svg data-v-0dd9719b="" version="1.0" xmlns="http://www.w3.org/2000/svg" xmlns:xlink="http://www.w3.org/1999/xlink" width="100%" height="100%" viewBox="0 0 100 100" preserveAspectRatio="xMidYMid meet" color-interpolation-filters="sRGB" style="margin: auto;"> <rect data-v-0dd9719b="" x="0" y="0" width="100%" height="100%" fill="#ffffff" fill-opacity="1" class="background" style="display: none;"/> <rect data-v-0dd9719b="" x="0" y="0" width="100%" height="100%" fill="url(#watermark)" fill-opacity="1" class="watermarklayer" style="display: none;"/> <g data-v-0dd9719b="" fill="#333" class="iconsvg-imagesvg"><rect fill="#333" fill-opacity="0" stroke-width="2" x="0" y="0" width="100" height="100" class="image-rect"/> <svg viewBox="0 0 60 60" x="0" y="0" width="100" height="100" class="image-svg-svg bn" style="overflow: visible;"><g hollow-target="iconBnFill" mask="url(#fae5b8a5-930c-4c87-bba1-f12e2baaedf4)"><g><svg viewBox="0 0 100 100" xmlns="http://www.w3.org/2000/svg" style="overflow: visible;" width="60" height="60" x="0" y="0" filtersec="colorsb1479354184" filter="url(#rmqYTJbmrVM0nv3lgs3jA)"><g transform="scale(1, 1) skewX(0)"><path d="M0 0h70c16.569 0 30 13.431 30 30v70H30C13.431 100 0 86.569 0 70V0z" fill-rule="evenodd"/></g><defs><filter id="rmqYTJbmrVM0nv3lgs3jA"><feColorMatrix type="matrix" values="0 0 0 0 0.19921875  0 0 0 0 0.19921875  0 0 0 0 0.19921875  0 0 0 1 0"/></filter></defs></svg></g> <g filter="url(#colors5004918493)"><svg xmlns="http://www.w3.org/2000/svg" xmlns:xlink="http://www.w3.org/1999/xlink" viewBox="0 0 73.51200000000001 45.57600000000001" width="45" height="45" x="7.5" y="7.5" class="image-svg-letter"><path transform="translate(0.504 45.57600000000001)" d="M13.46-0.94L13.46-0.94Q8.21-0.94 4.75-7.13L4.75-7.13Q1.94-12.02 0.58-20.16L0.58-20.16Q-0.50-26.57-0.50-31.68L-0.50-31.68L-0.50-36.00Q0.29-37.80 1.48-38.81Q2.66-39.82 4.82-39.82L4.82-39.82Q7.63-39.82 9.50-36.72L9.50-36.72Q10.30-35.28 11.66-30.96L11.66-30.96Q12.60-27.86 13.46-27.86L13.46-27.86Q14.54-27.86 15.34-31.39L15.34-31.39Q16.34-36.22 17.21-37.80L17.21-37.80Q19.08-41.26 22.54-41.26L22.54-41.26Q26.21-41.26 27.86-37.44L27.86-37.44L27.86-33.62Q27.86-28.15 26.71-21.74L26.71-21.74Q25.20-13.03 22.32-7.70L22.32-7.70Q18.72-0.94 13.46-0.94ZM65.88 0L65.88 0Q63.72 0 62.50-0.86Q61.27-1.73 60.70-2.99Q60.12-4.25 59.98-5.76Q59.83-7.27 59.80-8.53Q59.76-9.79 59.69-10.66Q59.62-11.52 59.11-11.52L59.11-11.52Q58.25-11.52 57.46-10.48Q56.66-9.43 55.66-8.17Q54.65-6.91 53.32-5.87Q51.98-4.82 50.04-4.82L50.04-4.82Q48.24-4.82 47.09-5.65Q45.94-6.48 45.11-7.45Q44.28-8.42 43.67-9.25Q43.06-10.08 42.34-10.08L42.34-10.08Q41.62-10.08 40.68-7.85L40.68-7.85Q39.38-4.90 38.45-3.67L38.45-3.67Q36.72-1.44 34.20-1.44L34.20-1.44Q28.37-1.44 27.22-9.29L27.22-9.29Q26.86-11.59 26.86-15.12L26.86-15.12L27.00-21.10Q27.00-42.26 39.96-42.26L39.96-42.26Q42.48-42.26 44.10-40.75Q45.72-39.24 46.91-37.44Q48.10-35.64 49.00-34.13Q49.90-32.62 50.98-32.62L50.98-32.62Q51.91-32.62 52.60-33.62Q53.28-34.63 55.01-39.10L55.01-39.10Q57.53-45.58 63.00-45.58L63.00-45.58Q65.66-45.58 67.39-44.35Q69.12-43.13 70.16-41.11Q71.21-39.10 71.71-36.58Q72.22-34.06 72.43-31.50Q72.65-28.94 72.65-26.57L72.65-26.57L72.58-22.54Q72.58-21.24 72.76-19.04Q72.94-16.85 73.01-14.40L73.01-14.40Q73.01-11.88 72.83-9.32Q72.65-6.77 71.89-4.68Q71.14-2.59 69.70-1.30Q68.26 0 65.88 0Z"/></svg></g></g><mask id="fae5b8a5-930c-4c87-bba1-f12e2baaedf4"><g fill="white"><svg viewBox="0 0 100 100" xmlns="http://www.w3.org/2000/svg" style="overflow: visible;" width="60" height="60" x="0" y="0" filtersec="colorsb1479354184"><g transform="scale(1, 1) skewX(0)"><path d="M0 0h70c16.569 0 30 13.431 30 30v70H30C13.431 100 0 86.569 0 70V0z" fill-rule="evenodd"/></g><defs/></svg></g> <g fill="black"><svg xmlns="http://www.w3.org/2000/svg" xmlns:xlink="http://www.w3.org/1999/xlink" viewBox="0 0 73.51200000000001 45.57600000000001" width="45" height="45" x="7.5" y="7.5" class="image-svg-letter"><path transform="translate(0.504 45.57600000000001)" d="M13.46-0.94L13.46-0.94Q8.21-0.94 4.75-7.13L4.75-7.13Q1.94-12.02 0.58-20.16L0.58-20.16Q-0.50-26.57-0.50-31.68L-0.50-31.68L-0.50-36.00Q0.29-37.80 1.48-38.81Q2.66-39.82 4.82-39.82L4.82-39.82Q7.63-39.82 9.50-36.72L9.50-36.72Q10.30-35.28 11.66-30.96L11.66-30.96Q12.60-27.86 13.46-27.86L13.46-27.86Q14.54-27.86 15.34-31.39L15.34-31.39Q16.34-36.22 17.21-37.80L17.21-37.80Q19.08-41.26 22.54-41.26L22.54-41.26Q26.21-41.26 27.86-37.44L27.86-37.44L27.86-33.62Q27.86-28.15 26.71-21.74L26.71-21.74Q25.20-13.03 22.32-7.70L22.32-7.70Q18.72-0.94 13.46-0.94ZM65.88 0L65.88 0Q63.72 0 62.50-0.86Q61.27-1.73 60.70-2.99Q60.12-4.25 59.98-5.76Q59.83-7.27 59.80-8.53Q59.76-9.79 59.69-10.66Q59.62-11.52 59.11-11.52L59.11-11.52Q58.25-11.52 57.46-10.48Q56.66-9.43 55.66-8.17Q54.65-6.91 53.32-5.87Q51.98-4.82 50.04-4.82L50.04-4.82Q48.24-4.82 47.09-5.65Q45.94-6.48 45.11-7.45Q44.28-8.42 43.67-9.25Q43.06-10.08 42.34-10.08L42.34-10.08Q41.62-10.08 40.68-7.85L40.68-7.85Q39.38-4.90 38.45-3.67L38.45-3.67Q36.72-1.44 34.20-1.44L34.20-1.44Q28.37-1.44 27.22-9.29L27.22-9.29Q26.86-11.59 26.86-15.12L26.86-15.12L27.00-21.10Q27.00-42.26 39.96-42.26L39.96-42.26Q42.48-42.26 44.10-40.75Q45.72-39.24 46.91-37.44Q48.10-35.64 49.00-34.13Q49.90-32.62 50.98-32.62L50.98-32.62Q51.91-32.62 52.60-33.62Q53.28-34.63 55.01-39.10L55.01-39.10Q57.53-45.58 63.00-45.58L63.00-45.58Q65.66-45.58 67.39-44.35Q69.12-43.13 70.16-41.11Q71.21-39.10 71.71-36.58Q72.22-34.06 72.43-31.50Q72.65-28.94 72.65-26.57L72.65-26.57L72.58-22.54Q72.58-21.24 72.76-19.04Q72.94-16.85 73.01-14.40L73.01-14.40Q73.01-11.88 72.83-9.32Q72.65-6.77 71.89-4.68Q71.14-2.59 69.70-1.30Q68.26 0 65.88 0Z"/></svg></g></mask></svg> <defs><filter id="colors5004918493"><feColorMatrix type="matrix" values="0 0 0 0 0.19921875  0 0 0 0 0.19921875  0 0 0 0 0.19921875  0 0 0 1 0" class="icon-fecolormatrix"/></filter> <filter id="colorsf6013732906"><feColorMatrix type="matrix" values="0 0 0 0 0.99609375  0 0 0 0 0.99609375  0 0 0 0 0.99609375  0 0 0 1 0" class="icon-fecolormatrix"/></filter> <filter id="colorsb1479354184"><feColorMatrix type="matrix" values="0 0 0 0 0  0 0 0 0 0  0 0 0 0 0  0 0 0 1 0" class="icon-fecolormatrix"/></filter></defs></g><defs v-gra="od"/></svg>
  </svg>